<?xml version="1.0" standalone="yes"?>
<svg xmlns="http://www.w3.org/2000/svg" width="383" height="104">
<path style="fill:#e2f2f6; stroke:none;" d="M245 4C246.15 6.6656 247.467 8.56255 250 10C249.824 8.12179 249.562 6.80062 249 5L255 8C255 6.20319 255.014 6.47853 256 5C257.926 6.63225 258.511 6.96589 261 7C262.635 9.54536 263.994 9.77944 267 10L268 6L268 10C277.577 11.0126 287.401 8.85023 297 8.375C301.921 8.13136 307.03 9 312 9L311 7L321 7C320.232 5.68587 320.314 5.76788 319 5C331.338 1.35298 345.662 4.64701 358 1C349.643 -2.50695 336.06 0 327 0C299.633 0 272.307 3.92463 245 4z"/>
<path style="fill:#d9eef3; stroke:none;" d="M59 28C54.378 31.0816 58.3195 34.2872 62 36C61.9059 33.7951 61.6438 32.1059 61 30C63.5039 27.8065 62.4106 25.7204 61 23C65.8063 23 70.9362 23.8463 75 21C79.7581 24.6092 86.3787 23.2765 92 23.0394C99.7613 22.712 107.239 23.86 115 23.1667C135.072 21.3733 155.223 20.6354 175.285 18.7106C186.35 17.6491 197.9 14.2458 209 14.4691C219.316 14.6768 229.646 13.1687 240 12.7446C245.174 12.5327 250.61 13.0909 255 10C259.064 13.0314 265.098 11.0135 270 11C269.255 9.17709 269.046 7.97653 269 6C267.733 7.54303 267.511 8.04779 267 10C264.157 9.57874 262.988 9.06104 261 7C257.93 7.04873 255.794 4.01032 255 8C252.885 6.42688 251.53 5.64819 249 5L250 10C248.015 8.1773 246.503 6.24074 245 4C230.125 6.76162 214.096 6.70787 199 8.16975C165.434 11.4202 131.759 16 98 16C87.1991 16 75.6799 16.1263 65.0008 17.7299C59.1622 18.6067 54.8113 22.2439 59 28z"/>
<path style="fill:#cae8ed; stroke:none;" d="M289 9C289 10.7968 289.014 10.5215 290 12C287.154 12.1776 285.724 12.2954 284 10C281.868 11.0579 280.611 12.2298 279 14C275.865 11.7221 273.82 12.5666 271 15C271 13.2032 270.986 13.4785 270 12C267.623 12.572 265.442 12.8905 263 13L265 16C262.496 15.1345 260.709 13.6621 259 16C255.809 14.9072 254.714 15.0471 253 18L266 20C266 18.2032 265.986 18.4785 265 17L273 22L272 17C276.768 16.8841 281.492 18.6028 286.015 18.341C290.366 18.0892 294.655 16.6033 299 16.1705C303.419 15.7304 307.624 16.6605 312 16.6605C317.686 16.6605 323.27 15.6603 329 16C330.717 14.1602 331.566 13.6514 334 13C330.99 8.36012 322.812 9.86134 318 11C315.276 7.23718 312.181 8.67184 308 8.90663C301.71 9.25984 295.354 8.7272 289 9z"/>
<path style="fill:#e0f1f5; stroke:none;" d="M317 9C322.288 12.4189 329.139 8.08889 334 13L330 13C335.222 15.1914 342.368 14 348 14L347 12C351.117 11.9063 355.592 12.7521 358 9C344.159 7.90768 330.839 9 317 9z"/>
<path style="fill:#b6e0e3; stroke:none;" d="M255 10C250.168 12.6917 245.326 12.1121 240 12.51C229.293 13.31 218.595 13.6178 208 13.9244C205.582 13.9943 203.394 15.2334 201 15.5054C192.684 16.4503 184.333 17.2933 176 18.3403C157.448 20.6712 138.587 21.3394 119.961 22.8549C110.936 23.5892 102.024 22.911 93 23.0039C89.1555 23.0434 83.8279 22.5854 80.2284 24.0679C71.3447 27.7267 81.1866 43.5355 75 48C75.9857 46.5215 76 46.7968 76 45C72.8754 46.1049 71.6898 48.1892 70 51L74 50C74.2569 52.9782 73.9188 55.156 73 58L68 57C69.2554 58.6662 70.1588 60.0987 71 62L74 61L73 64C74.9215 65.6579 75.8955 66.7414 77 69C74.6081 68.7005 73.9565 68.6805 72 70C70.0743 68.1943 68.4038 67.0919 66 66C65.2736 68.1792 65.5605 67.7803 64 67C63.1552 69.6954 62.3431 72.1939 62 75C65.0117 73.3917 66.599 72.1301 68 69L70 69L71 70C70.0503 75.6645 78.5513 79.1391 72 83L73 78C67.853 77.8938 62.849 77.6477 59 74L53 75C56.052 79.4845 61.1178 78.8344 66 80C65.0823 82.8036 64.6024 84.1429 67 86L67 80C68.9485 80.9357 69.5502 81.3924 71 83L68 82C69.947 85.2162 72.294 86.0723 76 86C76.5471 87.875 77.11 89.2553 78 91C81.4738 89.6055 83.817 88.6657 85 85C87.1059 85.6438 88.7951 85.9059 91 86L90 83L94 84L91 90L98 86L98 92C104.396 91.3916 110.504 89.7503 116.83 88.7153C119.487 88.2807 121.643 86.3583 124 88C129.169 85.4833 132.019 84.0046 138 84C139.928 80.5016 142.122 80.1254 146 80L146 82L140 82C146.042 84.5409 155.501 84.6389 162 83.8148C166.413 83.2552 169.701 81.6917 169 77C171.54 77.523 171.685 77.5947 172 75L176 81C184.512 77.2898 190.981 78.9965 200 79L243 79C246.481 73.3154 252.505 76.9035 258 76.9954C267.571 77.1554 276.82 77.1635 286.17 75.5409C290.117 74.8559 292.757 75.7818 296 73C297.856 74.0481 298.944 74.5125 301 75L301 71L307 74L308 70L303 71C305.206 69.1831 307.198 68.6062 310 68C308.53 66.0406 306.821 65.9485 308 63L309 64C307.368 60.7377 304.791 58.6499 304 55C306.856 56.3958 308.204 56.7868 310 54C311.512 57.2035 312.509 59.015 316 60L316 56L318 56C318.899 58.1236 318.876 58.1007 321 59C320.776 60.6838 320.782 61.3135 321 63C317.825 62.4757 315.175 62.4756 312 63C314.18 64.1868 315.514 64.2342 318 64C318.578 66.6975 319.261 66.7893 322 67L319 65C324.905 60.86 322.737 55.3732 316 55C318.585 52.313 320.273 51.2838 324 51C324.438 53.7434 324.779 55.3253 327 57C327.049 54.539 327.434 52.3993 328 50C326.604 50.6613 326.186 50.9645 325 52C324.031 48.5048 323.153 45.9071 320 44L321 50C317.571 47.0886 315.635 44.7444 311 44C310.064 45.9486 309.608 46.5502 308 48L309 53C307.775 50.7604 307.162 47.5598 305.402 45.6983C303.202 43.3718 300.674 42.8981 299 40C302.36 39.8529 303.6 38.2602 306 36C306.176 37.8782 306.438 39.1994 307 41L311 38L312 42L315 41C313.728 38.526 313.052 36.7807 313 34L309 34C309 35.7968 309.014 35.5215 310 37C305.035 33.8178 305.707 28.1117 311 26C312.59 28.9905 313.957 30.5135 317 32L314 26L320 27L321 23L316 23C314.348 17.9022 309.778 18.0241 305 18.0008C293.945 17.9467 282.821 16.2003 272 17L273 22C270.369 19.9295 268.251 17.8951 265 17L266 20C261.49 18.3898 257.679 18.5232 253 18C254.79 15.8269 255.291 15.27 258 16C260.6 14.9072 262.286 15.4466 265 16C264.232 14.6859 264.314 14.7679 263 14L270 12L271 15C274.075 13.0133 275.608 12.5423 279 14C280.743 12.3724 281.383 11.303 282 9C274.033 10.0235 262.387 13.6248 255 10M284 9L284 13C286.106 12.8061 287.973 12.5826 290 12C288.249 9.55186 286.996 9.2249 284 9z"/>
<path style="fill:#f2f9fb; stroke:none;" d="M329 16C323.713 15.1584 318.329 16.2133 313 16.4059C305.602 16.6732 298.422 16.4142 291 17C294.959 18.6611 299.74 18 304 18C312.314 18 320.649 18.1645 328.961 17.9498C333.607 17.8299 337.572 18.5015 341 15C337.082 14.2726 331.89 12.6931 329 16z"/>
<path style="fill:#c8e7ed; stroke:none;" d="M327 18C327.577 21.4745 328.526 22.4235 332 23C332.03 25.0612 332.077 25.0916 333 27C331.179 27.7282 331.176 28.7192 329 29C329.598 30.1954 329.466 29.9774 331 31L327 32L326 26L322 26L322 18L312 18C313.792 19.6112 314.92 20.852 316 23L321 23L320 27L314 26L317 32C314.562 30.2103 312.857 28.3949 311 26C305.073 26.9878 304.083 35.7321 310 37L309 34L313 34C312.869 37.0855 313.319 38.4025 315 41C313.203 41 313.479 41.0143 312 42L311 38C309.271 38.9265 308.406 39.6085 307 41L306 36C303.539 37.5785 301.992 39.5984 299 40C300.236 43.5561 303.108 43.7084 305.4 46.4167C306.905 48.1944 307.291 50.8435 308 53C308.468 51.1535 308.301 49.9314 308 48C310.035 46.7741 310.326 46.2974 311 44C315.259 45.1237 317.368 47.9198 321 50L320 44C322.557 46.3343 323.723 48.7877 325 52L328 50C326.998 52.6138 326.678 54.2268 327 57C325.276 55.0469 324.655 53.5367 324 51C320.088 51.1288 318.239 51.7233 316 55C322.827 55.7699 323.546 60.3146 319 65C320.248 65.6849 320.548 65.7488 322 66C319.547 66.1391 319.324 66.0706 318 64L312 64C315.164 62.7998 317.641 62.728 321 63L321 59C319.543 57.8966 319.103 57.4566 318 56L316 56C315.598 57.9435 315.598 58.0565 316 60C312.963 58.6043 311.842 57.2336 311 54C308.362 55.7335 307.014 55.8989 304 55C303.901 59.0615 306.669 60.8696 309 64C305.8 63.9781 308.215 66.2127 310 67C307.366 68.154 304.801 68.7593 303 71L308 70C311.331 73.8123 317.909 71.7336 322 70L321 68C324.024 66.2367 324.615 64.4417 325 61C328.991 60.5894 331.729 59.2999 335 57C334.503 60.2071 333.85 61.4435 331 63C332.248 63.6848 332.548 63.7488 334 64C333.316 65.58 333.195 65.7772 332 67C339.169 70.0081 350.239 68 358 68L358 66C350.666 65.9951 343.278 64.9005 336 64C341.056 61.131 348.171 62.4769 350 56L357 57L357 53C350.792 51.5221 344.346 52 338 52L338 50C341.793 50 346.121 50.5708 349.83 49.7006C353.435 48.8551 356.221 46.5989 360 46L360 43L354 43C357.69 36.8929 349.086 35.9807 345 34L350 32L348 28C352.178 29.2323 357.13 29.7707 360 26L355 26L354 21L358 20C350.464 14.0698 335.961 17.4778 327 18z"/>
<path style="fill:#e2f2f5; stroke:none;" d="M357 18C356.722 20.3292 356.29 20.3426 354 21C357.167 28.8787 365.816 22.3711 371 20C366.732 17.7267 361.725 17.0786 357 18z"/>
<path style="fill:#b6e0e3; stroke:none;" d="M322 18L322 26L326 26L327 32L331 31C330.35 29.7003 330.853 30 329 30L333 27C332.429 25.4874 332.136 24.5728 332 23C328.873 22.0658 327.934 21.1266 327 18L322 18z"/>
<path style="fill:#c2e5e8; stroke:none;" d="M74 21C70.3116 23.7943 65.481 23 61 23C62.069 25.879 62.7877 27.403 61 30L62 36C57.3155 36.7317 53.8464 38.009 53 43L48 41C45.7655 43.2962 44.1983 43.7703 41 44L41 47L48 47L44 48L44 51L53 52C52.2474 54.409 51.6031 56.0758 50 58C50.5618 56.1994 50.8241 54.8782 51 53C47.193 53.1155 44.8418 53.4869 43 57C46.6299 58.5837 50.176 59.9575 54 61C52.2458 61.5847 53.0046 61.6682 51 61C51 62.7968 51.0143 62.5215 52 64C48.3321 63.452 46.1884 64.1832 43 66C44.2995 68.7633 45.5531 70.1641 48 72C47.5363 69.8278 46.8945 68.0417 46 66C50.8483 65.7378 54.4757 63.4287 59 62C56.3468 64.946 53.9373 66.4255 50 67C50.4287 72.4431 53.5983 74.9688 59 74C62.0623 78.2624 68.1048 77.9595 73 78C72.4382 79.8006 72.1759 81.1218 72 83C79.5849 80.3366 70.8385 74.9812 71 70L70 69L68 69C66.2952 71.6051 64.5092 73.1595 62 75L64 67C65.6721 67.3382 65.3102 67.5372 66 66L72 70C73.9472 69.2861 74.9342 69.0806 77 69C76.1772 66.288 75.4331 65.4619 73 64C73.9857 62.5215 74 62.7968 74 61C72.2032 61 72.4785 61.0143 71 62C70.3264 59.7026 70.0347 59.2259 68 58C69.8467 57.7896 71.1434 57.806 73 58C74.3758 55.0247 74.6083 53.222 74 50L70 51C71.9188 48.6511 73.3957 46.5222 76 45L75 48C79.467 47.0379 77.2962 42.4817 76.6111 39C75.6119 33.9216 76.1886 25.0848 82 24L74 21z"/>
<path style="fill:#d8eef2; stroke:none;" d="M348 28C348.465 29.9818 348.703 30.4056 350 32C348.125 32.547 346.745 33.11 345 34C351.283 36.6612 368.259 38.7842 372 32C363.963 31.6549 355.671 30.4324 348 28z"/>
<path style="fill:#b6e0e3; stroke:none;" d="M321 37C318.68 34.7968 317.19 34.2323 314 34C315.127 36.8406 315.987 37.4917 319 38L318 42C319.267 40.4569 319.489 39.9522 320 38C325.03 40.0277 331.934 39.1402 333 33C331.018 33.4646 330.594 33.7035 329 35C327.938 33.3998 328.116 33.7193 326 34L326 31C322.988 32.5047 321.925 33.7596 321 37z"/>
<path style="fill:#e2f2f6; stroke:none;" d="M9 41C11.9763 41.8125 13.6414 42.9837 16 45C13.6428 46.1036 12.6239 46.9564 11 49C18.1909 51.4326 24.4042 51.9992 32 52C27.6603 53.2827 23.3924 52.4574 19 53.2276C13.5453 54.1841 9.82605 56.9794 4 57L4 59C9.47296 59.8046 14.4055 60.9963 20 61L20 63C15.5094 63.1051 11.4278 64.5592 7 65L7 68C10.5824 68.568 11.9433 69.5083 13 73C17.7831 73.0982 22.2186 73.5647 27 73L25 70C27.446 69.9811 29.4678 70.9285 31 69C32.4785 69.9857 32.2032 70 34 70C31.588 67.4946 28.412 66.5054 26 64C32.6362 63.7114 44.257 64.1219 48 58L43 57C45.3052 54.0518 47.2913 53.2535 51 53L50 58C52.0801 56.3333 52.4234 54.609 53 52L44 51L44 48L48 48C45.6441 46.6293 43.7427 46.8591 41 47L41 44C44.2845 43.8951 46.1767 43.8178 48 41C49.7227 41.9341 51.1062 42.5354 53 43C54.0636 39.5435 55.6692 38.3306 59 37C53.9412 34.8772 48.286 36.5485 43 36.9105C35.3682 37.4331 27.6456 36.8269 20 37.0147C15.7894 37.1181 11.3859 37.2775 9 41z"/>
<path style="fill:#d9eef2; stroke:none;" d="M355 38L356 42C365.163 42 373.906 43.2823 383 44C378.026 37.4587 362.537 38.0008 355 38z"/>
<path style="fill:#ddf0f4; stroke:none;" d="M355 52L357 57L350 56L348 61L367 61C366.02 59.2167 366.092 59.4057 364 59C365.036 57.8137 365.339 57.3964 366 56L362 56C362.986 54.5215 363 54.7968 363 53C360.314 52.4992 357.73 52.1174 355 52z"/>
<path style="fill:#b6e0e3; stroke:none;" d="M334 57C331.053 59.0737 328.551 60.3594 325 61L324 67C326.227 67.421 328.7 68.2699 330.972 67.75C334.427 66.9595 333.969 64.6243 331 64C333.88 62.0387 335.31 60.447 334 57z"/>
<path style="fill:#d6edf1; stroke:none;" d="M47 59C42.5567 63.5728 32.2528 63.49 26 64C27.866 66.926 31.1951 67.9426 34 70L31 69C29.0287 69.7555 27.1377 69.7853 25 70L25 72C32.0939 76.2023 42.685 77.62 51 78C44.718 81.3525 33.3067 77.3437 29 83C36.3063 81.9982 43.5849 83 51 83L53 77L49 76C50.0831 72.8618 50.1647 70.2993 50 67C54.1394 66.6991 56.8349 65.6303 59 62C54.4308 62.8806 50.6781 65.4924 46 66L48 72C46.1376 70.0546 44.5316 68.2061 43 66C46.1474 64.7459 48.5705 63.895 52 64L51 61C52.4785 61.9857 52.2032 62 54 62C51.8206 60.2735 49.698 59.7268 47 59z"/>
<path style="fill:#ecf7f9; stroke:none;" d="M12 61L13 63C7.82778 63.1108 4.54118 64.7732 0 67L0 69L1 70C4.02508 69.4379 6.92205 69.0636 10 69C10.7699 73.6136 13.7556 74.1801 18 75.2901C25.8027 77.3308 34.0116 77 42 77C35.6671 78.8719 28.5661 77.9258 22 78.0039C17.6322 78.0558 13.3661 78.9099 9 79C9.89929 81.1236 9.87637 81.1007 12 82L7 84L9 89L21 90C15.9744 91.4855 10.9357 90.9173 6 93C8.05665 94.5819 9.38752 94.8256 12 95L12 98C24.7946 98.0085 37.3154 100.455 50 101C50.4852 104.861 54.6378 103.999 58 104C65.0593 104.003 71.9922 103.049 79 103C90.398 102.921 101.652 101.443 113 101.019C128.287 100.446 143.701 101 159 101C164.323 101 169.681 100.822 175 101.019C177.074 101.095 179.769 102.015 181.782 101.398C183.572 100.85 183.594 99.5343 184 98C171.382 98.1045 158.675 98.5206 146 97.9606C142.293 97.7969 138.704 96.6189 135 96.5748C126.476 96.4734 118.365 98.5538 110 98.9599C104.582 99.2229 99.3708 98.0293 94 98.0293C84.3734 98.0293 74.6222 99.5849 65 99.9599C58.6901 100.206 52.3486 99 46 99L46 97C55.9397 97 66.0836 97.5896 76 96.9105C84.7074 96.3142 93.2458 95 102 95C95.1568 92.1285 85.2168 94.1435 78 94.8302C68.4731 95.7369 58.5684 95 49 95L49 93L61 92C57.0584 86.8223 48.5907 89.5588 43 90C44.361 87.5398 45.0687 86.6105 42 86C45.35 85.0096 48.514 85.0019 52 85L52 83C44.3169 83 36.471 81.3747 29 83C34.505 78.2342 44.1456 81.0268 51 79C45.3412 76.2584 39.1199 75.9315 33 75.1759C26.1991 74.3363 20.0205 73.0535 13 73C12.3483 69.0892 10.8644 68.3002 7 68L7 65L20 63L20 61L12 61z"/>
<path style="fill:#dbeff3; stroke:none;" d="M321 69L325 71C319.925 72.2084 310.448 70.0538 307 74L301 71L301 75C299.338 74.3872 298.517 73.9573 297 73C292.529 74.994 288.822 75.0591 284 75L284 77C290.975 77 298.068 76.297 305 76.4552C313.327 76.6453 322.929 77.3856 331 75C328.943 73.4181 327.612 73.1744 325 73C329.995 70.3341 335.454 71 341 71L341 69C334.943 68.522 326.292 65.4469 321 69z"/>
<path style="fill:#b6e0e3; stroke:none;" d="M319 71C321.323 71.9215 322.581 71.6873 325 71C322.677 70.0785 321.419 70.3127 319 71z"/>
<path style="fill:#cde9ed; stroke:none;" d="M49 76L53 77C51.801 79.963 51.4482 81.8498 52 85L42 85C43.2484 85.6848 43.5484 85.7488 45 86L43 90C49.3177 89.7287 55.7564 87.44 61 92C56.92 92.0113 53.0367 92.4898 49 93L49 95C67.7476 95 86.3432 93 105 93C102.515 91.4456 100.875 91.4584 98 92L98 86C95.2088 86.819 93.356 88.295 91 90L94 84L90 83C90 84.7968 90.0143 84.5215 91 86L85 85C83.3191 88.1377 81.0735 89.2715 78 91L76 86C72.464 85.8345 70.3556 84.5988 68 82C69.4785 82.9857 69.2032 83 71 83C69.7741 80.9653 69.2974 80.6735 67 80L67 86C65.1387 83.8524 65.3462 82.7495 66 80C61.2099 78.5709 54.1341 79.5296 54 73C51.0955 73.1005 50.4351 73.4764 49 76z"/>
<path style="fill:#cce9ef; stroke:none;" d="M172 75C171.419 77.2527 171.344 77.2344 169 77C168.488 88.3753 147.287 83.0048 140 83C142.106 82.3562 143.795 82.0941 146 82L146 80C142.065 80.0466 139.343 79.954 138 84C132.031 84.0007 128.873 84.5534 124 88C121.496 85.8337 118.909 88.2699 115.91 88.5849C107.675 89.4499 101.51 93 93 93C95.8897 94.2129 98.8741 93.9983 102 94C95.7774 95.8393 88.4893 95.6131 82 96.0887C69.9859 96.9694 58.07 97 46 97L46 99C52.3738 99.0007 58.6427 100.131 65 99.9853C78.6828 99.6721 92.272 98 106 98C111.83 98 123.775 99.7049 126 93C139.174 93 152.902 93.6722 166 92.4552C175.463 91.576 185.437 89.2327 195 90L196 89C195.387 87.3385 194.957 86.5167 194 85C196.511 84.6415 198.498 84.5975 201 85C199.369 75.2283 182.305 77.1082 176 81C174.939 78.7033 173.669 76.9068 172 75z"/>
<path style="fill:#d4ecf0; stroke:none;" d="M243 79L233 79C237.215 80.7687 242.465 80 247 80L275 80L275 78C266.065 77.8909 257.729 76.0364 249 75.2546C245.778 74.966 243.854 76.0797 243 79z"/>
<path style="fill:#d7edf2; stroke:none;" d="M201 81L201 85C198.341 84.3249 196.688 84.4083 194 85L196 89L195 90C191.887 89.5443 189.113 89.5443 186 90C195.507 93.9891 209.787 91.7252 220 91.8611C241.714 92.1501 263.325 89.955 285 89.0394C291.655 88.7582 298.365 88.1772 305 88.0147C310.68 87.8755 316.513 88.6218 322 87C316.827 83.0811 308.227 85.5196 302 85C310.737 82.4176 320.263 85.5824 329 83C316.563 77.7814 301.14 81 288 81L201 81z"/>
<path style="fill:#b6e0e3; stroke:none;" d="M63 87L64 91C65.2397 89.1897 65.1837 89.2231 65 87L63 87z"/>
<path style="fill:#e8f4f8; stroke:none;" d="M126 93L125 97C152.018 96.9851 179.046 98.7804 206 99.9606C223.596 100.731 241.386 100 259 100C270.152 100 280.915 98.9766 292 98.0856C296.587 97.717 302.142 98.0617 305 94C278.037 94.003 250.935 96.3148 224 95.9961C191.315 95.6094 158.45 93 126 93z"/>
<path style="fill:#fefefe; stroke:none;" d="M99 98C103.724 99.9822 109.91 99 115 99C110.276 97.0178 104.09 98 99 98z"/>
</svg>
